# xmcd
#
# Track frame offsets: 
#        183
#        15970
#        30175
#        43998
#        61690
#        78285
#        94958
#        113813
#        136145
#        151318
#        166368
#
# Disc length: 2447 seconds
#
# Revision: 4
# Processed by: cddbd v1.5.2PL0 Copyright (c) Steve Scherf et al.
# Submitted via: ExactAudioCopyFreeDBPlugin 1.0
#
DISCID=77098d0b
DTITLE=Hugo Fattoruso and Ruben Rada - Las Aventuras De Fattoruso and Rada
DYEAR=1991
DGENRE=Candombe-Jazz
TTITLE0=Por La Ventana Primaveral
TTITLE1=Ana
TTITLE2=Toque I
TTITLE3=Momentos
TTITLE4=A Jose Novoa
TTITLE5=Candombe Para Figari
TTITLE6=Santanita
TTITLE7=La Zafra
TTITLE8=Candombe De Hoy
TTITLE9=Baby Corazon
TTITLE10=La Nobleza Del Mundo
EXTD=YEAR: 1991
EXTT0=
EXTT1=
EXTT2=
EXTT3=
EXTT4=
EXTT5=
EXTT6=
EXTT7=
EXTT8=
EXTT9=
EXTT10=
PLAYORDER=
